<mxfile host="65bd71144e">
    <diagram id="6btUw03aJNLOTZfgfP7R" name="Page-1">
        <mxGraphModel dx="929" dy="667" grid="1" gridSize="10" guides="1" tooltips="1" connect="1" arrows="1" fold="1" page="1" pageScale="1" pageWidth="850" pageHeight="1100" math="0" shadow="0">
            <root>
                <mxCell id="0"/>
                <mxCell id="1" parent="0"/>
                <mxCell id="2" value="&lt;font style=&quot;font-size: 12px;&quot; face=&quot;Courier New&quot;&gt;user_input = int( input( &quot;Type a number&quot;) )&lt;/font&gt;" style="text;html=1;strokeColor=none;fillColor=none;align=center;verticalAlign=middle;whiteSpace=wrap;rounded=0;" vertex="1" parent="1">
                    <mxGeometry x="70" y="440" width="330" height="30" as="geometry"/>
                </mxCell>
                <mxCell id="4" value="user_input" style="swimlane;whiteSpace=wrap;html=1;fontFamily=Courier New;fontSize=12;" vertex="1" parent="1">
                    <mxGeometry x="600" y="360" width="130" height="70" as="geometry"/>
                </mxCell>
                <mxCell id="5" value="100" style="text;html=1;align=center;verticalAlign=middle;resizable=0;points=[];autosize=1;strokeColor=none;fillColor=none;fontSize=12;fontFamily=Courier New;" vertex="1" parent="4">
                    <mxGeometry x="40" y="30" width="50" height="30" as="geometry"/>
                </mxCell>
                <mxCell id="6" value="" style="swimlane;startSize=0;fontFamily=Courier New;fontSize=12;strokeColor=#737373;" vertex="1" parent="1">
                    <mxGeometry x="210" y="440" width="170" height="30" as="geometry">
                        <mxRectangle x="210" y="440" width="50" height="40" as="alternateBounds"/>
                    </mxGeometry>
                </mxCell>
                <mxCell id="7" value="" style="endArrow=classic;html=1;fontFamily=Courier New;fontSize=12;exitX=0.5;exitY=1;exitDx=0;exitDy=0;" edge="1" parent="1" source="6">
                    <mxGeometry width="50" height="50" relative="1" as="geometry">
                        <mxPoint x="580" y="410" as="sourcePoint"/>
                        <mxPoint x="295" y="550" as="targetPoint"/>
                    </mxGeometry>
                </mxCell>
                <mxCell id="8" value="&quot;100&quot;" style="edgeLabel;html=1;align=center;verticalAlign=middle;resizable=0;points=[];fontSize=12;fontFamily=Courier New;" vertex="1" connectable="0" parent="7">
                    <mxGeometry x="-0.125" y="1" relative="1" as="geometry">
                        <mxPoint as="offset"/>
                    </mxGeometry>
                </mxCell>
                <mxCell id="9" value="&lt;font style=&quot;font-size: 12px;&quot; face=&quot;Courier New&quot;&gt;user_input = int( &quot;100&quot; )&lt;/font&gt;" style="text;html=1;strokeColor=none;fillColor=none;align=center;verticalAlign=middle;whiteSpace=wrap;rounded=0;" vertex="1" parent="1">
                    <mxGeometry x="70" y="550" width="330" height="30" as="geometry"/>
                </mxCell>
                <mxCell id="10" value="" style="curved=1;endArrow=classic;html=1;fontFamily=Courier New;fontSize=12;" edge="1" parent="1" target="5">
                    <mxGeometry width="50" height="50" relative="1" as="geometry">
                        <mxPoint x="270" y="590" as="sourcePoint"/>
                        <mxPoint x="650" y="430" as="targetPoint"/>
                        <Array as="points">
                            <mxPoint x="450" y="650"/>
                        </Array>
                    </mxGeometry>
                </mxCell>
                <mxCell id="11" value="100" style="edgeLabel;html=1;align=center;verticalAlign=middle;resizable=0;points=[];fontSize=12;fontFamily=Courier New;" vertex="1" connectable="0" parent="10">
                    <mxGeometry x="-0.0682" y="-2" relative="1" as="geometry">
                        <mxPoint y="-50" as="offset"/>
                    </mxGeometry>
                </mxCell>
                <mxCell id="12" value="" style="swimlane;startSize=0;strokeColor=#737373;fontFamily=Courier New;fontSize=12;" vertex="1" parent="1">
                    <mxGeometry x="240" y="550" width="90" height="30" as="geometry"/>
                </mxCell>
            </root>
        </mxGraphModel>
    </diagram>
</mxfile>